<?xml version="1.0" encoding="utf-8"?>
<!-- Generator: Adobe Illustrator 21.1.0, SVG Export Plug-In . SVG Version: 6.00 Build 0)  -->
<svg version="1.1" id="Layer_1" xmlns="http://www.w3.org/2000/svg" xmlns:xlink="http://www.w3.org/1999/xlink" x="0px" y="0px"
	 viewBox="0 0 24 24" style="enable-background:new 0 0 24 24;" xml:space="preserve">
<style type="text/css">
	.st0{display:none;}
	.st1{display:inline;}
	.st2{fill:#FFFFFF;}
	.st3{fill-rule:evenodd;clip-rule:evenodd;fill:#676767;}
</style>
<g id="Layer_2" class="st0">
	<g class="st1">
		<rect class="st2" width="24" height="24"/>
	</g>
</g>
<path class="st3" d="M22.4,7.4c0,2.2-1.8,3.9-3.9,3.9c-0.2,0-0.3,0-0.5,0c-0.9,2.6-2.9,4.9-5.4,5.2v4h2c0.4,0,0.7,0.3,0.7,0.7
	c0,0.4-0.3,0.7-0.7,0.7H9.3c-0.4,0-0.7-0.3-0.7-0.7c0-0.4,0.3-0.7,0.7-0.7h2v-4c-2.5-0.4-4.5-2.7-5.4-5.2c-0.2,0-0.3,0-0.5,0
	c-2.2,0-3.9-1.8-3.9-3.9c0-2.6-0.6-2.6,3.9-2.6c0-1.4,1.2-2.6,2.6-2.6h7.8c1.4,0,2.6,1.2,2.6,2.6C22.9,4.8,22.4,4.8,22.4,7.4z
	 M5.4,6.1C2.9,6.1,2.8,6,2.8,7.4S4,10,5.4,10V6.1z M17.2,4.8c0-0.7-0.7-1.3-1.3-1.3H8c-0.6,0-1.3,0.7-1.3,1.3v3.9
	c0,2.9,2.3,6.5,5.2,6.5c2.9,0,5.2-3.6,5.2-6.5V4.8z M18.5,6.1V10c1.4,0,2.6-1.2,2.6-2.6S21.1,6.1,18.5,6.1z"/>
</svg>
