<?xml version="1.0" encoding="utf-8"?>
<!-- Generator: Adobe Illustrator 21.1.0, SVG Export Plug-In . SVG Version: 6.00 Build 0)  -->
<svg version="1.1" id="Layer_1" xmlns="http://www.w3.org/2000/svg" xmlns:xlink="http://www.w3.org/1999/xlink" x="0px" y="0px"
	 viewBox="0 0 22.6 24" style="enable-background:new 0 0 22.6 24;" xml:space="preserve">
<style type="text/css">
	.st0{display:none;}
	.st1{fill:#4FBC78;}
	.st2{display:inline;fill:#909090;}
</style>
<g id="Layer_2" class="st0">
</g>
<g id="Layer_1_1_">
	<path class="st1" d="M20,19l-5.3-3.2c2-2.1,2-5.1,2-5.2V8.8c0-3-2.1-5.5-5-5.8c-0.2,0-0.4,0-0.6,0s-0.4,0-0.7,0
		c-2.8,0.3-5,2.8-5,5.8v1.8c0,0.1,0,3.1,2,5.2l-5,3.2c-0.6,0.4-0.9,1-0.9,1.6c0,1,0.8,1.8,1.8,1.8h15.8c1,0,1.8-0.8,1.8-1.8
		C20.9,20,20.6,19.4,20,19z M19.1,21.1H3.3c-0.3,0-0.5-0.2-0.5-0.5c0-0.2,0.1-0.3,0.3-0.4l6-3.6l0,0l0,0l0.1-0.1c0,0,0.1,0,0.1-0.1
		l0,0c0,0,0-0.1,0.1-0.1v-0.1v-0.1V16v-0.1c0-0.1,0-0.1-0.1-0.2l0,0l-0.1-0.1c0,0,0-0.1-0.1-0.1c-2.2-1.7-2.2-4.8-2.2-4.8V8.9
		c0-2.3,1.7-4.3,3.8-4.5c0.2,0,0.3,0,0.5,0s0.3,0,0.5,0c2.1,0.2,3.8,2.1,3.8,4.5v1.8c0,0,0,3.1-2.2,4.8l-0.1,0.1l-0.1,0.1l0,0
		c0,0,0,0.1-0.1,0.2V16v0.1v0.1v0.1c0,0,0,0.1,0.1,0.1l0,0l0,0l0.1,0.1l6,3.6c0.2,0.1,0.3,0.3,0.3,0.4
		C19.6,20.9,19.4,21.1,19.1,21.1z"/>
	<g class="st0">
		<path class="st2" d="M-1,21h-3.5v-0.7l6.2-3.7c0.1,0,0.1-0.1,0.1-0.1l0,0l0,0c0-0.1,0.1-0.1,0.1-0.2c0,0,0,0,0-0.1s0-0.1,0-0.2
			v-0.1v-0.1c0-0.1,0-0.1-0.1-0.2l0,0l-0.1-0.1c0,0,0-0.1-0.1-0.1c-2.2-1.7-2.2-4.7-2.2-4.7V7.3c0.4-1.7,2.8-3.2,4.9-2.8
			C4.7,4.6,5,4.3,5.1,3.9S4.9,3.2,4.5,3.1C4.5,3,4.1,3,3.8,3C1.5,3-1.3,4.6-1.8,7.1v0.1v3.5c0,0.1,0,3,2,5.2l-5.7,3.4
			c-0.2,0.1-0.3,0.4-0.3,0.6v1.2c0,0.7,0.6,1.3,1.3,1.3h3.6c0.4,0,0.7-0.3,0.7-0.7C-0.3,21.3-0.6,21-1,21z"/>
	</g>
</g>
</svg>
