<?xml version="1.0" encoding="utf-8"?>
<!-- Generator: Adobe Illustrator 21.1.0, SVG Export Plug-In . SVG Version: 6.00 Build 0)  -->
<svg version="1.1" id="Layer_1" xmlns="http://www.w3.org/2000/svg" xmlns:xlink="http://www.w3.org/1999/xlink" x="0px" y="0px"
	 viewBox="0 0 29.9 24" style="enable-background:new 0 0 29.9 24;" xml:space="preserve">
<style type="text/css">
	.st0{display:none;}
	.st1{fill-rule:evenodd;clip-rule:evenodd;fill:#4FBC78;}
	.st2{fill:#4FBC78;}
</style>
<g id="Layer_2" class="st0">
</g>
<g id="_x31__1_">
	<g>
		<path class="st1" d="M28.1,9.1c-0.3-0.2-0.7-0.1-0.8,0.2l-3.9,6.7l-2.2-2c-0.2-0.2-0.6-0.3-0.9,0c-0.2,0.2-0.3,0.6,0,0.9l2.8,2.6
			c0.2,0.2,0.6,0.3,0.9,0c0.1-0.1,4.4-7.5,4.4-7.5C28.5,9.7,28.4,9.3,28.1,9.1z"/>
	</g>
</g>
<path class="st2" d="M26.6,20.6C26.6,20.6,26.6,20.6,26.6,20.6l-15.8,0c-0.3,0-0.5-0.2-0.5-0.5c0-0.2,0.1-0.3,0.3-0.4l6-3.6l0.1-0.1
	c0,0,0.1,0,0.1-0.1c0,0,0-0.1,0.1-0.1v-0.1v-0.1v-0.1v-0.1c0-0.1,0-0.1-0.1-0.2l-0.1-0.1c0,0,0-0.1-0.1-0.1
	c-2.2-1.7-2.2-4.8-2.2-4.8V8.4c0-2.3,1.7-4.3,3.8-4.5c0.2,0,0.3,0,0.5,0s0.3,0,0.5,0c1.7,0.2,3.2,1.5,3.6,3.2c0,0,0,0,0,0
	c0.1,0.2,0.3,0.4,0.6,0.4c0.3,0,0.6-0.3,0.6-0.6c0,0,0-0.1,0-0.1c0,0,0,0,0,0c0,0,0,0,0-0.1c0,0,0,0,0,0c-0.6-2.3-2.4-4-4.8-4.3
	c-0.2,0-0.4,0-0.6,0c-0.2,0-0.4,0-0.7,0c-2.8,0.3-5,2.8-5,5.8v1.8c0,0.1,0,3.1,2,5.2l-5,3.2c-0.6,0.4-0.9,1-0.9,1.6
	c0,1,0.8,1.8,1.8,1.8h15.8l0,0h0c0.4,0,0.7-0.3,0.7-0.7C27.3,20.9,27,20.6,26.6,20.6z"/>
<path class="st2" d="M12.1,3.9c0.3,0.1,0.7-0.2,0.7-0.5c0.1-0.4-0.2-0.7-0.5-0.7l0,0c-0.1,0-0.2-0.1-0.4-0.1c-0.2,0-0.4,0-0.6,0
	c-0.2,0-0.4,0-0.7,0c-2.8,0.3-5,2.8-5,5.8l0,1.8c0,0.1,0,3.1,2,5.2l-5.3,3.2c-0.6,0.3-0.9,0.9-0.9,1.6c0,1,0.8,1.8,1.8,1.8h0.8h2.3
	c0.4,0,0.6-0.3,0.6-0.6s-0.3-0.6-0.6-0.6l0,0H3.4c-0.3,0-0.5-0.2-0.5-0.5c0-0.2,0.1-0.3,0.3-0.4l6-3.6l0,0l0,0c0,0,0.1-0.1,0.1-0.1
	c0,0,0.1,0,0.1-0.1c0,0,0,0,0,0c0,0,0-0.1,0.1-0.1c0,0,0-0.1,0-0.1c0,0,0-0.1,0-0.1c0,0,0-0.1,0-0.1c0,0,0-0.1,0-0.1
	c0-0.1,0-0.1-0.1-0.2c0,0,0,0,0,0c0,0-0.1-0.1-0.1-0.1c0,0,0-0.1-0.1-0.1C7.1,13.3,7,10.3,7,10.2l0-1.8c0-2.3,1.7-4.3,3.8-4.5
	c0.2,0,0.3,0,0.5,0c0.2,0,0.3,0,0.5,0C11.9,3.9,12,3.9,12.1,3.9"/>
</svg>
