<?xml version="1.0" encoding="utf-8"?>
<!-- Generator: Adobe Illustrator 21.1.0, SVG Export Plug-In . SVG Version: 6.00 Build 0)  -->
<svg version="1.1" id="Layer_1" xmlns="http://www.w3.org/2000/svg" xmlns:xlink="http://www.w3.org/1999/xlink" x="0px" y="0px"
	 viewBox="0 0 30.1 24" style="enable-background:new 0 0 30.1 24;" xml:space="preserve">
<style type="text/css">
	.st0{display:none;}
	.st1{fill:#4FBC78;}
	.st2{display:inline;fill:#909090;}
</style>
<g id="Layer_2" class="st0">
</g>
<g id="Layer_1_1_">
	<path class="st1" d="M27.5,19l-5.3-3.2c2-2.1,2-5.1,2-5.2V8.8c0-3-2.1-5.5-5-5.8c-0.2,0-0.4,0-0.6,0s-0.4,0-0.7,0
		c-2.8,0.3-5,2.8-5,5.8v1.8c0,0.1,0,3.1,2,5.2l-5,3.2C9.3,19.4,9,20,9,20.6c0,1,0.8,1.8,1.8,1.8h15.8c1,0,1.8-0.8,1.8-1.8
		C28.4,20,28.1,19.4,27.5,19z M26.6,21.1H10.8c-0.3,0-0.5-0.2-0.5-0.5c0-0.2,0.1-0.3,0.3-0.4l6-3.6l0,0l0,0l0.1-0.1
		c0,0,0.1,0,0.1-0.1l0,0c0,0,0-0.1,0.1-0.1v-0.1v-0.1V16v-0.1c0-0.1,0-0.1-0.1-0.2l0,0l-0.1-0.1c0,0,0-0.1-0.1-0.1
		c-2.2-1.7-2.2-4.8-2.2-4.8V8.9c0-2.3,1.7-4.3,3.8-4.5c0.2,0,0.3,0,0.5,0s0.3,0,0.5,0C21.3,4.6,23,6.5,23,8.9v1.8c0,0,0,3.1-2.2,4.8
		l-0.1,0.1l-0.1,0.1l0,0c0,0,0,0.1-0.1,0.2V16v0.1v0.1v0.1c0,0,0,0.1,0.1,0.1l0,0l0,0l0.1,0.1l6,3.6c0.2,0.1,0.3,0.3,0.3,0.4
		C27.1,20.9,26.9,21.1,26.6,21.1z"/>
	<g class="st0">
		<path class="st2" d="M6.5,21H3v-0.7l6.2-3.7c0.1,0,0.1-0.1,0.1-0.1l0,0l0,0c0-0.1,0.1-0.1,0.1-0.2c0,0,0,0,0-0.1s0-0.1,0-0.2v-0.1
			v-0.1c0-0.1,0-0.1-0.1-0.2l0,0l-0.1-0.1c0,0,0-0.1-0.1-0.1c-2.2-1.7-2.2-4.7-2.2-4.7V7.3c0.4-1.7,2.8-3.2,4.9-2.8
			c0.4,0.1,0.7-0.2,0.8-0.6S12.4,3.2,12,3.1C12,3,11.6,3,11.3,3C9,3,6.2,4.6,5.7,7.1v0.1v3.5c0,0.1,0,3,2,5.2L2,19.3
			c-0.2,0.1-0.3,0.4-0.3,0.6v1.2c0,0.7,0.6,1.3,1.3,1.3h3.6c0.4,0,0.7-0.3,0.7-0.7C7.2,21.3,6.9,21,6.5,21z"/>
	</g>
	<path class="st1" d="M12.1,4.4c0.3,0.1,0.7-0.2,0.7-0.5c0.1-0.4-0.2-0.7-0.5-0.7l0,0C12.2,3.1,12.1,3,12,3c-0.2,0-0.4,0-0.6,0
		c-0.2,0-0.4,0-0.7,0c-2.8,0.3-5,2.8-5,5.8v1.8c0,0.1,0,3.1,2,5.2L2.5,19c-0.5,0.4-0.9,1-0.9,1.6c0,1,0.8,1.8,1.8,1.8h0.8h2.3
		c0.4,0,0.6-0.3,0.6-0.6s-0.3-0.6-0.6-0.6l0,0H3.4c-0.3,0-0.5-0.2-0.5-0.5c0-0.2,0.1-0.3,0.3-0.4l6-3.6l0,0l0,0l0.1-0.1
		c0,0,0.1,0,0.1-0.1l0,0c0,0,0-0.1,0.1-0.1v-0.1v-0.1v-0.1V16c0-0.1,0-0.1-0.1-0.2l0,0l-0.1-0.1c0,0,0-0.1-0.1-0.1
		C7.1,13.8,7,10.7,7,10.7V8.9c0-2.3,1.7-4.3,3.8-4.5c0.2,0,0.3,0,0.5,0s0.3,0,0.5,0C11.9,4.3,12,4.4,12.1,4.4"/>
</g>
</svg>
