<?xml version="1.0" encoding="utf-8"?>
<!-- Generator: Adobe Illustrator 21.1.0, SVG Export Plug-In . SVG Version: 6.00 Build 0)  -->
<svg version="1.1" id="Layer_1" xmlns="http://www.w3.org/2000/svg" xmlns:xlink="http://www.w3.org/1999/xlink" x="0px" y="0px"
	 viewBox="0 0 24 24" style="enable-background:new 0 0 24 24;" xml:space="preserve">
<style type="text/css">
	.st0{display:none;}
	.st1{display:inline;}
	.st2{fill:#FFFFFF;}
	.st3{fill-rule:evenodd;clip-rule:evenodd;fill:#676767;}
</style>
<g id="Layer_2" class="st0">
	<g class="st1">
		<rect class="st2" width="24" height="24"/>
	</g>
</g>
<path class="st3" d="M17.2,4.2h-1.3v13.1c0,2.2-1.8,3.9-3.9,3.9c-2.2,0-3.9-1.8-3.9-3.9V5.5c0-1.4,1.2-2.6,2.6-2.6s2.6,1.2,2.6,2.6
	v11.8c0,0.7-0.6,1.3-1.3,1.3c-0.7,0-1.3-0.6-1.3-1.3V6.8H9.4v10.5c0,1.4,1.2,2.6,2.6,2.6s2.6-1.2,2.6-2.6V5.5c0-2.2-1.8-3.9-3.9-3.9
	c-2.2,0-3.9,1.8-3.9,3.9v12.4c0.3,2.6,2.6,4.6,5.2,4.6c2.7,0,4.9-2,5.2-4.6V4.2z"/>
</svg>
