<?xml version="1.0" encoding="utf-8"?>
<!-- Generator: Adobe Illustrator 21.1.0, SVG Export Plug-In . SVG Version: 6.00 Build 0)  -->
<svg version="1.1" id="Layer_1" xmlns="http://www.w3.org/2000/svg" xmlns:xlink="http://www.w3.org/1999/xlink" x="0px" y="0px"
	 viewBox="0 0 24 24" style="enable-background:new 0 0 24 24;" xml:space="preserve">
<style type="text/css">
	.st0{display:none;}
	.st1{display:inline;}
	.st2{fill:#FFFFFF;}
	.st3{fill:#D8D8D8;}
</style>
<g id="Layer_2" class="st0">
	<g class="st1">
		<rect class="st2" width="24" height="24"/>
	</g>
</g>
<g>
	<path class="st3" d="M16.2,11.6c-0.1-0.1-0.3-0.1-0.5,0L12,15.2c-0.1,0.1-0.1,0.3,0,0.4l3.2,3.2c0.1,0.1,0.3,0.2,0.5,0.2H18
		c0.5,0,0.9-0.4,0.9-0.9v-3.7c0-0.2-0.1-0.3-0.2-0.5L16.2,11.6z"/>
	<path class="st3" d="M8.9,14.6c-0.1-0.1-0.3-0.1-0.5,0L5,17.6c-0.1,0.1-0.2,0.3-0.2,0.5l0,0.1c0,0.5,0.4,0.9,0.9,0.9h7.1
		c0.3,0,0.4-0.4,0.2-0.6L8.9,14.6z"/>
	<circle class="st3" cx="7.7" cy="8.1" r="1.2"/>
	<path class="st3" d="M21.3,0H2.8C1.2,0,0,1.2,0,2.8v18.5C0,22.8,1.2,24,2.8,24h18.5c1.5,0,2.8-1.2,2.8-2.8V2.8
		C24,1.2,22.8,0,21.3,0z M7.7,5.6c1.4,0,2.6,1.1,2.6,2.5s-1.2,2.5-2.6,2.5S5.1,9.5,5.1,8.1S6.3,5.6,7.7,5.6z M20.2,18.2
		c0,1.2-1,2.2-2.2,2.2H5.7c-1.2,0-2.2-1-2.2-2.2v-0.7c0-0.2,0.1-0.3,0.2-0.5l4.9-4.4c0.1-0.1,0.3-0.1,0.5,0l1.6,1.6
		c0.1,0.1,0.3,0.1,0.5,0l4.6-4.6c0.1-0.1,0.3-0.1,0.5,0l3.8,4c0.1,0.1,0.2,0.3,0.2,0.5V18.2z"/>
</g>
</svg>
