<?xml version="1.0" encoding="utf-8"?>
<!-- Generator: Adobe Illustrator 21.1.0, SVG Export Plug-In . SVG Version: 6.00 Build 0)  -->
<svg version="1.1" id="Layer_1" xmlns="http://www.w3.org/2000/svg" xmlns:xlink="http://www.w3.org/1999/xlink" x="0px" y="0px"
	 viewBox="0 0 24 24" style="enable-background:new 0 0 24 24;" xml:space="preserve">
<style type="text/css">
	.st0{display:none;}
	.st1{display:inline;}
	.st2{fill:#FFFFFF;}
	.st3{fill:#D8D8D8;}
</style>
<g id="Layer_2" class="st0">
	<g class="st1">
		<rect class="st2" width="24" height="24"/>
	</g>
</g>
<g>
	<polygon class="st3" points="8.3,17.8 17.1,12.2 8.3,6.7 	"/>
	<path class="st3" d="M21.3,0.1H2.8C1.2,0.1,0,1.3,0,2.8v18.5c0,1.5,1.2,2.8,2.8,2.8h18.5c1.5,0,2.8-1.2,2.8-2.8V2.8
		C24,1.3,22.8,0.1,21.3,0.1z M18.1,13.1l-9.7,6.3c-0.2,0.1-0.4,0.2-0.6,0.2c-0.1,0-0.3,0-0.4-0.1C7.3,19.4,7,19.1,7,18.4V6
		c0-0.6,0.2-0.9,0.4-1c0.3-0.2,0.6-0.1,1,0.1l9.7,6.3c0.3,0.2,0.5,0.5,0.5,0.9C18.6,12.6,18.4,12.9,18.1,13.1z"/>
</g>
</svg>
